<svg xmlns="http://www.w3.org/2000/svg" width="1680" height="362" viewBox="0 0 1680 362" font-family="-apple-system,Segoe UI,Roboto,Helvetica,Arial,sans-serif"><defs><marker id="qarrow" markerWidth="10" markerHeight="10" refX="8" refY="3" orient="auto" markerUnits="strokeWidth"><path d="M0,0 L8,3 L0,6 z" fill="#5f6368"/></marker></defs><rect width="1680" height="362" fill="#ffffff"/><text x="28" y="30" font-size="16" font-weight="600" fill="#202124">elt.grouped_pipeline</text><text x="28" y="47" font-size="12" fill="#5f6368">workflow · SUCCEEDED · dlka3ot69xso-dd2f60ba</text><rect x="28.0" y="78.0" width="221.4" height="214.0" rx="12" fill="#fafaf9" stroke="#d6d3d1" stroke-dasharray="4 4"/><text x="38.0" y="92.0" font-size="11" font-weight="600" fill="#78716c">extract</text><rect x="321.4" y="110.0" width="482.8" height="150.0" rx="12" fill="#fafaf9" stroke="#d6d3d1" stroke-dasharray="4 4"/><text x="331.4" y="124.0" font-size="11" font-weight="600" fill="#78716c">transform</text><rect x="876.2" y="78.0" width="221.4" height="214.0" rx="12" fill="#fafaf9" stroke="#d6d3d1" stroke-dasharray="4 4"/><text x="886.2" y="92.0" font-size="11" font-weight="600" fill="#78716c">load</text><rect x="1169.6" y="110.0" width="482.8" height="150.0" rx="12" fill="#fafaf9" stroke="#d6d3d1" stroke-dasharray="4 4"/><text x="1179.6" y="124.0" font-size="11" font-weight="600" fill="#78716c">report</text><path d="M 526.8 162.0 L 530.3 162.0 Q 533.8 162.0 533.8 165.5 L 533.8 188.0 Q 533.8 194.0 539.8 194.0 L 598.8 194.0" fill="none" stroke="#9aa0a6" stroke-width="1.6" marker-end="url(#qarrow)"/><path d="M 1375.0 162.0 L 1378.5 162.0 Q 1382.0 162.0 1382.0 165.5 L 1382.0 188.0 Q 1382.0 194.0 1388.0 194.0 L 1447.0 194.0" fill="none" stroke="#9aa0a6" stroke-width="1.6" marker-end="url(#qarrow)"/><path d="M 1375.0 226.0 L 1378.5 226.0 Q 1382.0 226.0 1382.0 222.5 L 1382.0 200.0 Q 1382.0 194.0 1388.0 194.0 L 1447.0 194.0" fill="none" stroke="#9aa0a6" stroke-width="1.6" marker-end="url(#qarrow)"/><path d="M 249.4 185.0 L 321.4 185.0" fill="none" stroke="#9aa0a6" stroke-width="1.6" marker-end="url(#qarrow)"/><path d="M 804.2 185.0 L 876.2 185.0" fill="none" stroke="#9aa0a6" stroke-width="1.6" marker-end="url(#qarrow)"/><path d="M 1097.6 185.0 L 1169.6 185.0" fill="none" stroke="#9aa0a6" stroke-width="1.6" marker-end="url(#qarrow)"/><g><title>extract_customers — SUCCEEDED (attempt 1/3)</title><rect x="44.0" y="108.0" width="189.4" height="44.0" rx="8" fill="#e6f4ea" stroke="#34a853" stroke-width="1.6"/><text x="138.7" y="126.0" font-size="13" font-weight="600" fill="#137333" text-anchor="middle">extract_customers</text><text x="138.7" y="141.0" font-size="10" fill="#5f6368" text-anchor="middle">elt.extract</text></g><g><title>extract_orders — SUCCEEDED (attempt 1/3)</title><rect x="44.0" y="172.0" width="189.4" height="44.0" rx="8" fill="#e6f4ea" stroke="#34a853" stroke-width="1.6"/><text x="138.7" y="190.0" font-size="13" font-weight="600" fill="#137333" text-anchor="middle">extract_orders</text><text x="138.7" y="205.0" font-size="10" fill="#5f6368" text-anchor="middle">elt.extract</text></g><g><title>extract_products — SUCCEEDED (attempt 1/3)</title><rect x="44.0" y="236.0" width="189.4" height="44.0" rx="8" fill="#e6f4ea" stroke="#34a853" stroke-width="1.6"/><text x="138.7" y="254.0" font-size="13" font-weight="600" fill="#137333" text-anchor="middle">extract_products</text><text x="138.7" y="269.0" font-size="10" fill="#5f6368" text-anchor="middle">elt.extract</text></g><g><title>transform_customers — SUCCEEDED (attempt 1/1)</title><rect x="337.4" y="140.0" width="189.4" height="44.0" rx="8" fill="#e6f4ea" stroke="#34a853" stroke-width="1.6"/><text x="432.1" y="158.0" font-size="13" font-weight="600" fill="#137333" text-anchor="middle">transform_customers</text><text x="432.1" y="173.0" font-size="10" fill="#5f6368" text-anchor="middle">elt.transform</text></g><g><title>transform_orders — SUCCEEDED (attempt 1/1)</title><rect x="598.8" y="172.0" width="189.4" height="44.0" rx="8" fill="#e6f4ea" stroke="#34a853" stroke-width="1.6"/><text x="693.5" y="190.0" font-size="13" font-weight="600" fill="#137333" text-anchor="middle">transform_orders</text><text x="693.5" y="205.0" font-size="10" fill="#5f6368" text-anchor="middle">elt.transform</text></g><g><title>transform_products — SUCCEEDED (attempt 1/1)</title><rect x="337.4" y="204.0" width="189.4" height="44.0" rx="8" fill="#e6f4ea" stroke="#34a853" stroke-width="1.6"/><text x="432.1" y="222.0" font-size="13" font-weight="600" fill="#137333" text-anchor="middle">transform_products</text><text x="432.1" y="237.0" font-size="10" fill="#5f6368" text-anchor="middle">elt.transform</text></g><g><title>load_customers — SUCCEEDED (attempt 1/1)</title><rect x="892.2" y="108.0" width="189.4" height="44.0" rx="8" fill="#e6f4ea" stroke="#34a853" stroke-width="1.6"/><text x="986.9" y="126.0" font-size="13" font-weight="600" fill="#137333" text-anchor="middle">load_customers</text><text x="986.9" y="141.0" font-size="10" fill="#5f6368" text-anchor="middle">elt.load</text></g><g><title>load_orders — SUCCEEDED (attempt 1/1)</title><rect x="892.2" y="172.0" width="189.4" height="44.0" rx="8" fill="#e6f4ea" stroke="#34a853" stroke-width="1.6"/><text x="986.9" y="190.0" font-size="13" font-weight="600" fill="#137333" text-anchor="middle">load_orders</text><text x="986.9" y="205.0" font-size="10" fill="#5f6368" text-anchor="middle">elt.load</text></g><g><title>load_products — SUCCEEDED (attempt 1/1)</title><rect x="892.2" y="236.0" width="189.4" height="44.0" rx="8" fill="#e6f4ea" stroke="#34a853" stroke-width="1.6"/><text x="986.9" y="254.0" font-size="13" font-weight="600" fill="#137333" text-anchor="middle">load_products</text><text x="986.9" y="269.0" font-size="10" fill="#5f6368" text-anchor="middle">elt.load</text></g><g><title>refresh_dashboard — SUCCEEDED (attempt 1/1)</title><rect x="1185.6" y="140.0" width="189.4" height="44.0" rx="8" fill="#e6f4ea" stroke="#34a853" stroke-width="1.6"/><text x="1280.3" y="158.0" font-size="13" font-weight="600" fill="#137333" text-anchor="middle">refresh_dashboard</text><text x="1280.3" y="173.0" font-size="10" fill="#5f6368" text-anchor="middle">elt.refresh_dashboard</text></g><g><title>publish_metrics — SUCCEEDED (attempt 1/1)</title><rect x="1185.6" y="204.0" width="189.4" height="44.0" rx="8" fill="#e6f4ea" stroke="#34a853" stroke-width="1.6"/><text x="1280.3" y="222.0" font-size="13" font-weight="600" fill="#137333" text-anchor="middle">publish_metrics</text><text x="1280.3" y="237.0" font-size="10" fill="#5f6368" text-anchor="middle">elt.publish_metrics</text></g><g><title>send_alert — SUCCEEDED (attempt 1/1)</title><rect x="1447.0" y="172.0" width="189.4" height="44.0" rx="8" fill="#e6f4ea" stroke="#34a853" stroke-width="1.6"/><text x="1541.7" y="190.0" font-size="13" font-weight="600" fill="#137333" text-anchor="middle">send_alert</text><text x="1541.7" y="205.0" font-size="10" fill="#5f6368" text-anchor="middle">elt.send_alert</text></g><rect x="28.0" y="322.0" width="12" height="12" rx="3" fill="#f1f3f4" stroke="#9aa0a6"/><text x="46.0" y="332.0" font-size="11" fill="#3c4043">QUEUED</text><rect x="104.0" y="322.0" width="12" height="12" rx="3" fill="#e8f0fe" stroke="#1a73e8"/><text x="122.0" y="332.0" font-size="11" fill="#174ea6">RUNNING</text><rect x="187.0" y="322.0" width="12" height="12" rx="3" fill="#fef7e0" stroke="#f9ab00"/><text x="205.0" y="332.0" font-size="11" fill="#b06000">BLOCKED</text><rect x="270.0" y="322.0" width="12" height="12" rx="3" fill="#e6f4ea" stroke="#34a853"/><text x="288.0" y="332.0" font-size="11" fill="#137333">SUCCEEDED</text><rect x="367.0" y="322.0" width="12" height="12" rx="3" fill="#fce8e6" stroke="#d93025"/><text x="385.0" y="332.0" font-size="11" fill="#a50e0e">FAILED</text><rect x="443.0" y="322.0" width="12" height="12" rx="3" fill="#fef3e2" stroke="#e37400"/><text x="461.0" y="332.0" font-size="11" fill="#a05a00">CANCELLED</text><rect x="540.0" y="322.0" width="12" height="12" rx="3" fill="#f3e8fd" stroke="#9334e6"/><text x="558.0" y="332.0" font-size="11" fill="#6a1b9a">SUSPENDED</text><rect x="637.0" y="322.0" width="12" height="12" rx="3" fill="#e0f2f1" stroke="#00897b"/><text x="655.0" y="332.0" font-size="11" fill="#00695c">PAUSED</text><rect x="713.0" y="322.0" width="12" height="12" rx="3" fill="#eceff1" stroke="#546e7a"/><text x="731.0" y="332.0" font-size="11" fill="#37474f">INTERRUPTED</text></svg>